<?xml version="1.0" encoding="UTF-8"?>
<svg version="1.1" xmlns="http://www.w3.org/2000/svg" width="512" height="512">
<path d="M0 0 C0 89.76 0 179.52 0 272 C-4.28704193 271.14259161 -6.45433327 270.40574061 -10.11328125 268.33203125 C-11.10126709 267.77588135 -12.08925293 267.21973145 -13.10717773 266.64672852 C-14.16493408 266.04143311 -15.22269043 265.4361377 -16.3125 264.8125 C-17.42117432 264.184646 -18.52984863 263.55679199 -19.67211914 262.90991211 C-29.12965658 257.53806301 -38.52701651 252.06304021 -47.91015625 246.5625 C-54.21570465 242.86786663 -60.54297534 239.2115276 -66.875 235.5625 C-67.95370361 234.94068848 -69.03240723 234.31887695 -70.14379883 233.67822266 C-73.42892251 231.78500101 -76.71439728 229.89239017 -80 228 C-84.37542829 225.47990911 -88.75050473 222.95921017 -93.125 220.4375 C-94.19524414 219.82060303 -95.26548828 219.20370605 -96.36816406 218.56811523 C-103.80197522 214.2789885 -111.21676904 209.95812731 -118.625 205.625 C-127.6967411 200.31943293 -136.81453875 195.10603581 -146 190 C-146 189.01 -146 188.02 -146 187 C-142.64094855 184.95172149 -139.26059884 182.94154164 -135.875 180.9375 C-134.92367187 180.35677734 -133.97234375 179.77605469 -132.9921875 179.17773438 C-132.0640625 178.63310547 -131.1359375 178.08847656 -130.1796875 177.52734375 C-129.33132324 177.01937256 -128.48295898 176.51140137 -127.60888672 175.98803711 C-124.25155637 174.71654956 -122.43865208 175.04512864 -119 176 C-116.34472656 177.25244141 -116.34472656 177.25244141 -113.640625 178.8515625 C-112.11115234 179.74584961 -112.11115234 179.74584961 -110.55078125 180.65820312 C-109.46152344 181.30724609 -108.37226563 181.95628906 -107.25 182.625 C-106.09302648 183.30502178 -104.93546287 183.98404047 -103.77734375 184.66210938 C-101.37334852 186.07067324 -98.97194227 187.48350641 -96.57226562 188.89941406 C-91.0716521 192.14016925 -85.53401041 195.31674207 -80 198.5 C-77.8461638 199.74185738 -75.69251881 200.98404646 -73.5390625 202.2265625 C-72.46817383 202.8443457 -71.39728516 203.46212891 -70.29394531 204.09863281 C-66.91124065 206.05123465 -63.52972196 208.00587748 -60.1484375 209.9609375 C-59.0140625 210.61642578 -57.8796875 211.27191406 -56.7109375 211.94726562 C-54.58290321 213.17699036 -52.45525814 214.40738904 -50.328125 215.63867188 C-41.92190514 220.49474536 -33.46323996 225.23942752 -25 230 C-24.67 167.96 -24.34 105.92 -24 42 C-41.40535429 51.80459568 -41.40535429 51.80459568 -58.6875 61.8125 C-67.42506951 66.93412258 -76.20016333 71.98647712 -85 77 C-93.73411083 81.97711763 -102.44732828 86.98734198 -111.125 92.0625 C-129.10101434 102.57581697 -147.15294764 112.95577256 -165.23907471 123.27822876 C-173.88408379 128.21260209 -182.51195249 133.17520057 -191.12109375 138.171875 C-195.86014181 140.92172965 -200.6074998 143.65707061 -205.35498047 146.39233398 C-214.91837742 151.90267223 -224.47045877 157.43130014 -234 163 C-245.70080785 169.83689687 -257.43402063 176.61671028 -269.18066406 183.37451172 C-271.68395896 184.81778652 -274.18291679 186.26813574 -276.6796875 187.72265625 C-277.34145996 188.10631348 -278.00323242 188.4899707 -278.68505859 188.88525391 C-280.34356326 189.84680289 -282.00001529 190.8118901 -283.65625 191.77734375 C-286 193 -286 193 -288 193 C-289.18324441 190.63351117 -289.12326046 189.2226868 -289.12025452 186.58346558 C-289.12231651 185.19100616 -289.12231651 185.19100616 -289.12442017 183.77041626 C-289.12082489 182.74902557 -289.11722961 181.72763489 -289.11352539 180.67529297 C-289.11367142 179.60210815 -289.11381744 178.52892334 -289.1139679 177.42321777 C-289.11326917 173.86285405 -289.10547861 170.30254213 -289.09765625 166.7421875 C-289.09579193 164.27881906 -289.09436809 161.81545024 -289.09336853 159.3520813 C-289.08954446 152.85832705 -289.07971511 146.36459505 -289.06866455 139.87084961 C-289.05844806 133.24853822 -289.0538704 126.62622324 -289.04882812 120.00390625 C-289.03809276 107.00259466 -289.021209 94.00129851 -289 81 C-285.64713542 79.88692535 -285.20963709 79.89748798 -281.8046875 81.5625 C-280.48769904 82.36345239 -279.17839188 83.17710697 -277.875 84 C-276.34086324 84.9352681 -274.80563502 85.86874734 -273.26953125 86.80078125 C-272.00810303 87.57156006 -272.00810303 87.57156006 -270.72119141 88.35791016 C-265.71394999 91.37950587 -260.63409609 94.27569125 -255.5625 97.1875 C-249.20694272 100.84274435 -242.85175596 104.49791359 -236.52006531 108.1943512 C-234.13155303 109.58849872 -231.74099253 110.97911331 -229.35031128 112.36953735 C-227.65676809 113.35648645 -225.9661706 114.34848462 -224.27563477 115.34057617 C-223.24881592 115.93717041 -222.22199707 116.53376465 -221.1640625 117.1484375 C-220.26123535 117.67614746 -219.3584082 118.20385742 -218.42822266 118.74755859 C-216.17811515 119.90813084 -214.51302714 120.74742968 -212 121 C-209.91890045 120.26810412 -209.91890045 120.26810412 -207.859375 118.96484375 C-206.64399048 118.25666504 -206.64399048 118.25666504 -205.40405273 117.53417969 C-204.52821533 117.00727539 -203.65237793 116.48037109 -202.75 115.9375 C-201.82324463 115.39383789 -200.89648926 114.85017578 -199.94165039 114.29003906 C-197.96151348 113.12733522 -195.98446455 111.95935924 -194.01025391 110.78662109 C-189.16892251 107.91323397 -184.30147471 105.08482195 -179.4375 102.25 C-178.44637207 101.67040527 -177.45524414 101.09081055 -176.43408203 100.49365234 C-168.69134296 95.96915463 -160.91514975 91.50468379 -153.125 87.0625 C-140.79974132 80.03397674 -128.50277926 72.95759562 -116.21777344 65.85888672 C-110.81329355 62.73675395 -105.40652588 59.61858796 -100 56.5 C-97.8333225 55.25001878 -95.66665583 54.00001879 -93.5 52.75 C-54.5 30.25 -54.5 30.25 -51.24511719 28.37231445 C-49.09457457 27.13152967 -46.94418208 25.89048465 -44.79394531 24.64916992 C-39.73622187 21.72980526 -34.67705507 18.81303791 -29.61242676 15.90567017 C-27.23076498 14.53825234 -24.8499698 13.16932961 -22.46923828 11.80029297 C-20.79673979 10.83935447 -19.12299664 9.88058328 -17.44921875 8.921875 C-11.33991575 5.42523075 -11.33991575 5.42523075 -5.453125 1.57421875 C-3 0 -3 0 0 0 Z " fill="#E0B124" transform="translate(420,118)"/>
<path d="M0 0 C3.74578682 0.9364467 6.04883125 2.03167121 9.33984375 3.95703125 C10.39187988 4.56877197 11.44391602 5.1805127 12.52783203 5.81079102 C13.65302246 6.47135498 14.77821289 7.13191895 15.9375 7.8125 C17.11539786 8.49917398 18.29362446 9.18528435 19.47216797 9.87084961 C21.26519397 10.91393362 23.05801779 11.95734644 24.84979248 13.00257874 C30.08828096 16.05791304 35.35312907 19.0652812 40.625 22.0625 C47.96526535 26.24480948 55.27104681 30.48321597 62.5625 34.75 C71.34390856 39.88854405 80.16013447 44.96299084 89 50 C98.86718099 55.62294659 108.70816101 61.28813768 118.50195312 67.03833008 C123.21687754 69.80510726 127.94389799 72.54170463 132.71484375 75.2109375 C133.6080835 75.71455811 134.50132324 76.21817871 135.42163086 76.73706055 C137.09819263 77.680196 138.77978114 78.61446972 140.46704102 79.53833008 C142.36113323 80.60855986 144.18951237 81.79371992 146 83 C146 83.99 146 84.98 146 86 C142.64094855 88.04827851 139.26059884 90.05845836 135.875 92.0625 C134.92367187 92.64322266 133.97234375 93.22394531 132.9921875 93.82226562 C132.0640625 94.36689453 131.1359375 94.91152344 130.1796875 95.47265625 C129.33132324 95.98062744 128.48295898 96.48859863 127.60888672 97.01196289 C124.29957282 98.26526566 122.38802878 97.90070587 119 97 C116.48971489 95.69858491 114.14303416 94.36349294 111.75 92.875 C110.24048118 91.96205546 108.72999925 91.05070219 107.21875 90.140625 C106.39117187 89.63982422 105.56359375 89.13902344 104.7109375 88.62304688 C99.5944964 85.55981737 94.41891715 82.59850871 89.25 79.625 C88.13286621 78.98103271 87.01573242 78.33706543 85.86474609 77.67358398 C78.209846 73.26317788 70.53933067 68.88065636 62.86376953 64.50634766 C53.08912476 58.92540759 43.37660836 53.23777407 33.66455078 47.54882812 C30.45296671 45.682025 27.22528969 43.84302268 24 42 C24.33 104.04 24.66 166.08 25 230 C39.33228144 221.97392239 53.60941771 213.9440406 67.76953125 205.6328125 C74.48461274 201.70522451 81.24058722 197.85050294 88 194 C96.73419044 189.02302441 105.44733041 184.01265678 114.125 178.9375 C131.98636727 168.49123465 149.92259809 158.17696231 167.89712524 147.92694092 C177.10232888 142.67595875 186.26840015 137.36069916 195.41455078 132.00756836 C202.61030353 127.79953635 209.8392836 123.65319936 217.08349609 119.52929688 C224.59827334 115.24481542 232.06619021 110.88233795 239.53125 106.51196289 C245.15968006 103.22282644 250.80215174 99.96015064 256.46484375 96.73046875 C257.09330704 96.37201874 257.72177032 96.01356873 258.36927795 95.64425659 C261.43141932 93.89883379 264.49517527 92.15630486 267.56079102 90.41699219 C272.31458988 87.71271271 277.03591135 85.0120036 281.625 82.03515625 C285 80 285 80 288 80 C288 117.29 288 154.58 288 193 C283.71543596 191.57181199 280.8089992 190.48701477 277.078125 188.26953125 C276.14814697 187.72135742 275.21816895 187.17318359 274.26000977 186.60839844 C273.26670654 186.01575195 272.27340332 185.42310547 271.25 184.8125 C269.09806923 183.54226885 266.94571027 182.27276288 264.79296875 181.00390625 C263.67841309 180.34535645 262.56385742 179.68680664 261.41552734 179.00830078 C254.72907678 175.0767252 247.99919963 171.21998034 241.26977539 167.36254883 C236.39628598 164.56294769 231.54402573 161.74365904 226.7578125 158.796875 C225.97591553 158.31959961 225.19401855 157.84232422 224.38842773 157.35058594 C222.97130532 156.48097738 221.5612689 155.59965859 220.16040039 154.70410156 C216.64688319 152.5169387 216.64688319 152.5169387 212.62915039 152.22680664 C209.68377257 153.0929977 207.31162665 154.29419333 204.640625 155.80859375 C203.10450562 156.6737561 203.10450562 156.6737561 201.53735352 157.55639648 C200.45252686 158.17716064 199.3677002 158.7979248 198.25 159.4375 C197.12327881 160.0756665 195.99655762 160.71383301 194.83569336 161.37133789 C187.35796409 165.61845736 179.92785422 169.94169511 172.53125 174.328125 C166.90132079 177.66001947 161.2307813 180.92142872 155.5625 184.1875 C154.45672607 184.82478027 153.35095215 185.46206055 152.21166992 186.11865234 C148.8080747 188.0796138 145.40408111 190.03988215 142 192 C137.62449212 194.51995294 133.24943866 197.04069141 128.875 199.5625 C127.79661865 200.18415039 126.7182373 200.80580078 125.60717773 201.44628906 C118.43241148 205.58622034 111.27501075 209.75499288 104.125 213.9375 C95.48717999 218.98838019 86.8168036 223.98024353 78.125 228.9375 C62.51998707 237.83791661 46.93408104 246.77164588 31.42578125 255.83984375 C30.35682617 256.46487793 29.28787109 257.08991211 28.18652344 257.73388672 C26.18229929 258.90703762 24.17896359 260.08170845 22.17675781 261.25830078 C17.47298234 264.0136539 12.75122538 266.7365054 7.99609375 269.40234375 C6.6666272 270.15052368 6.6666272 270.15052368 5.31030273 270.91381836 C3 272 3 272 0 272 C0 182.24 0 92.48 0 0 Z " fill="#695A59" transform="translate(86,118)"/>
</svg>
